<svg id="Capa_1" enable-background="new 0 0 512 512" height="512" viewBox="0 0 512 512" width="512" xmlns="http://www.w3.org/2000/svg"><g><path d="m247.397 374.636h29.622c4.142 0 7.5-3.357 7.5-7.5s-3.358-7.5-7.5-7.5h-14.412v-9.367c0-4.143-3.358-7.5-7.5-7.5s-7.5 3.357-7.5 7.5v9.367h-.21c-11.982 0-21.73 9.735-21.73 21.702s9.748 21.702 21.73 21.702h15.505c3.586 0 6.617 3.082 6.617 6.729 0 3.633-3.069 6.702-6.702 6.702h-29.65c-4.142 0-7.5 3.357-7.5 7.5s3.358 7.5 7.5 7.5h14.412v9.367c0 4.143 3.358 7.5 7.5 7.5s7.5-3.357 7.5-7.5v-9.367h.239c11.966 0 21.702-9.735 21.702-21.702 0-11.981-9.697-21.729-21.617-21.729h-15.505c-3.711 0-6.73-3.007-6.73-6.702-.001-3.633 3.081-6.702 6.729-6.702z"/><path d="m492.866 220.572c-10.624-7.659-23.727-11.156-36.398-14.538-1.456-.389-2.904-.774-4.324-1.161-2.56-.702-4.335-3.975-5.625-7.079 22.277-14.819 38.949-40.638 38.949-63.106v-20.467c0-25.059-7.993-46.314-23.114-61.471-13.512-13.543-31.703-21.175-51.22-21.488-.08-.002-.161-.002-.241 0-19.505.313-37.687 7.945-51.196 21.489-5.363 5.376-9.809 11.534-13.34 18.343-27.538-16.421-58.899-25.064-91.249-25.064-31.806 0-62.709 8.365-89.914 24.257-3.46-6.487-7.759-12.372-12.906-17.534-13.506-13.545-31.691-21.177-51.208-21.49-.08-.002-.161-.002-.241 0-19.516.313-37.702 7.945-51.207 21.49-15.112 15.153-23.1 36.408-23.1 61.468v20.467c0 22.471 16.662 48.283 38.925 63.097-1.29 3.106-3.063 6.384-5.618 7.085-1.437.392-2.887.778-4.346 1.169-12.661 3.382-25.752 6.879-36.369 14.539-12.869 9.284-19.124 22.554-19.124 40.568v17.66c0 7.121 5.781 12.914 12.886 12.914h18.425c4.142 0 7.5-3.357 7.5-7.5s-3.358-7.5-7.5-7.5h-16.311v-15.574c0-23.405 12.758-31.272 34.339-37.795l38.62 22.641c4.73 3.035 8.865 4.554 13 4.554s8.269-1.519 13-4.554l38.62-22.641c21.582 6.523 34.339 14.39 34.339 37.795v15.574h-120.996c-4.142 0-7.5 3.357-7.5 7.5s3.358 7.5 7.5 7.5h23.74c15.762 38.788 44.37 70.545 81.331 90.301-.706 4.405-1.085 8.918-1.085 13.519 0 46.979 38.22 85.199 85.198 85.199 46.962 0 85.169-38.22 85.169-85.199 0-4.601-.379-9.114-1.084-13.519 36.962-19.756 65.569-51.514 81.331-90.301h19.687c4.142 0 7.5-3.357 7.5-7.5s-3.358-7.5-7.5-7.5h-115.154v-15.574c0-23.405 12.758-31.272 34.339-37.795l38.62 22.641c4.735 3.039 8.875 4.559 13.014 4.559 4.14 0 8.278-1.52 13.015-4.56l38.596-22.642c21.595 6.521 34.361 14.39 34.361 37.797v15.574h-22.179c-4.142 0-7.5 3.357-7.5 7.5s3.358 7.5 7.5 7.5h24.265c7.121 0 12.914-5.793 12.914-12.914v-17.66c0-18.019-6.259-31.29-19.134-40.574zm-81.853-174.31c26.697.484 55.249 19.146 59.032 58.861-5.106-1.793-8.006-4.752-11.021-7.829-3.862-3.941-8.877-9.06-17.708-9.06-2.096 0-4.407.288-6.968.949-3.437.883-6.363 1.662-8.899 2.337-7.524 2.005-11.302 3.011-14.435 3.011-3.107 0-6.875-1.004-14.382-3.004-2.542-.677-5.476-1.458-8.919-2.343-13.379-3.446-19.921 3.235-24.698 8.115-3.01 3.074-5.906 6.03-11.005 7.822 3.781-39.713 32.319-58.375 59.003-58.859zm-59.426 74.471c11.875-2.49 17.934-8.638 22.145-12.939 4.247-4.338 5.255-5.366 10.244-4.083 3.398.873 6.29 1.644 8.795 2.312 8.494 2.263 13.172 3.509 18.243 3.509 5.097 0 9.785-1.249 18.295-3.516 2.5-.666 5.384-1.435 8.778-2.306 4.967-1.284 5.976-.251 10.224 4.082 4.215 4.302 10.279 10.452 22.157 12.941v13.954c0 21.599-21.16 48.396-45.285 57.347-10.451 3.881-17.859 3.881-28.316-.002-24.121-8.94-45.28-35.737-45.28-57.345zm-250.629-74.471c26.683.483 55.219 19.147 59.004 58.857-5.087-1.792-7.982-4.746-10.992-7.817-4.783-4.88-11.335-11.568-24.707-8.118-3.471.892-6.42 1.678-8.971 2.357-7.467 1.991-11.215 2.99-14.334 2.99-3.107 0-6.874-1.004-14.38-3.003-2.542-.678-5.477-1.459-8.921-2.344-13.377-3.445-19.92 3.236-24.698 8.116-3.01 3.074-5.906 6.03-11.005 7.822 3.782-39.715 32.32-58.377 59.004-58.86zm-59.426 88.426v-13.955c11.875-2.489 17.934-8.638 22.145-12.939 4.247-4.338 5.257-5.366 10.243-4.083 3.399.874 6.292 1.645 8.797 2.312 8.493 2.263 13.171 3.509 18.241 3.509 5.085 0 9.743-1.242 18.199-3.496 2.514-.671 5.419-1.445 8.844-2.325 4.987-1.283 6-.253 10.256 4.091 4.211 4.297 10.27 10.441 22.127 12.931v13.956c0 21.607-21.159 48.404-45.291 57.349-10.436 3.886-17.834 3.886-28.282-.004-24.12-8.942-45.279-35.739-45.279-57.346zm64.704 98.444c-.094.055-.188.112-.279.172-4.578 2.959-5.419 2.959-9.997 0-.092-.06-.185-.117-.279-.172l-27.056-15.862c5.122-3.045 8.138-8.005 10.077-12.323.957.403 1.919.787 2.887 1.145 6.881 2.563 13.126 3.843 19.373 3.843 6.242 0 12.485-1.28 19.357-3.839.971-.36 1.937-.745 2.897-1.15 1.939 4.317 4.955 9.276 10.079 12.323zm148.871 232.608c-38.707 0-70.198-31.491-70.198-70.199 0-38.693 31.491-70.172 70.198-70.172 38.691 0 70.169 31.479 70.169 70.172 0 38.707-31.478 70.199-70.169 70.199zm114.787-260.871c-1.436.392-2.887.778-4.346 1.168-12.66 3.383-25.752 6.88-36.369 14.54-12.868 9.284-19.124 22.554-19.124 40.568v17.66c0 7.121 5.781 12.914 12.886 12.914h81.278c-14.346 31.85-38.354 58.109-68.868 75.302-11.755-32.978-43.28-56.654-80.243-56.654-36.975 0-68.511 23.676-80.27 56.655-30.515-17.192-54.524-43.453-68.87-75.303h83.064c7.105 0 12.886-5.793 12.886-12.914v-17.66c0-18.015-6.255-31.284-19.124-40.568-10.617-7.66-23.709-11.157-36.369-14.54-1.459-.39-2.91-.776-4.335-1.165-2.563-.703-4.339-3.983-5.629-7.089 22.265-14.817 38.925-40.626 38.925-63.095v-20.467c0-10.751-1.481-20.796-4.353-29.966 25.325-15.212 54.265-23.226 84.075-23.226 30.415 0 59.872 8.338 85.562 24.155-2.687 8.92-4.082 18.645-4.082 29.036v20.467c0 22.475 16.669 48.292 38.94 63.106-1.287 3.106-3.06 6.372-5.634 7.076zm46.423 28.264c-.094.055-.186.111-.277.171-4.591 2.967-5.435 2.967-10.025 0-.092-.06-.185-.117-.279-.172l-27.05-15.858c5.131-3.041 8.14-7.999 10.084-12.321.954.402 1.914.784 2.879 1.142 6.883 2.558 13.131 3.835 19.379 3.835 6.247 0 12.496-1.278 19.375-3.834.964-.358 1.922-.74 2.876-1.141 1.945 4.312 4.952 9.273 10.075 12.318z"/></g></svg>