<svg id="Layer_3" height="512" viewBox="0 0 64 64" width="512" xmlns="http://www.w3.org/2000/svg" data-name="Layer 3"><path d="m10 35 4-5 4 5h-2v5h-4v-5z"/><path d="m22 31 4-5 4 5h-2v5h-4v-5z"/><path d="m34 27 4-5 4 5h-2v5h-4v-5z"/><path d="m46 23 4-5 4 5h-2v5h-4v-5z"/><path d="m11 56v-12h6v12"/><path d="m23 56v-16h6v16"/><path d="m35 56v-20h6v20"/><path d="m47 56v-24h6v24"/><path d="m5 58h54v4h-54z"/><path d="m32 3a7 7 0 1 0 7 7 7.008 7.008 0 0 0 -7-7zm0 6a2.993 2.993 0 0 1 1 5.816v1.184h-2v-1.184a3 3 0 0 1 -2-2.816h2a1 1 0 1 0 1-1 2.993 2.993 0 0 1 -1-5.816v-1.184h2v1.184a3 3 0 0 1 2 2.816h-2a1 1 0 1 0 -1 1z"/></svg>